<svg class="main-svg" xmlns="http://www.w3.org/2000/svg" xmlns:xlink="http://www.w3.org/1999/xlink" width="1600" height="900" style="" viewBox="0 0 1600 900"><rect x="0" y="0" width="1600" height="900" style="fill: rgb(255, 255, 255); fill-opacity: 1;"/><defs id="defs-af2d8d"><g class="clips"><clipPath id="clipaf2d8dxyplot" class="plotclip"><rect width="1440" height="720"/></clipPath><clipPath id="clipaf2d8dxy2plot" class="plotclip"><rect width="1440" height="720"/></clipPath><clipPath class="axesclip" id="clipaf2d8dx"><rect x="80" y="0" width="1440" height="900"/></clipPath><clipPath class="axesclip" id="clipaf2d8dy"><rect x="0" y="100" width="1600" height="720"/></clipPath><clipPath class="axesclip" id="clipaf2d8dxy"><rect x="80" y="100" width="1440" height="720"/></clipPath><clipPath class="axesclip" id="clipaf2d8dy2"><rect x="0" y="100" width="1600" height="720"/></clipPath><clipPath class="axesclip" id="clipaf2d8dxy2"><rect x="80" y="100" width="1440" height="720"/></clipPath></g><g class="gradients"/></defs><g class="bglayer"><rect class="bg" x="80" y="100" width="1440" height="720" style="fill: rgb(255, 255, 255); fill-opacity: 1; stroke-width: 0;"/></g><g class="layer-below"><g class="imagelayer"/><g class="shapelayer"/></g><g class="cartesianlayer"><g class="subplot xy"><g class="layer-subplot"><g class="shapelayer"/><g class="imagelayer"/></g><g class="gridlayer"><g class="x"><path class="xgrid crisp" d="M0,100v720" transform="translate(158.25,0)" style="stroke: rgb(238, 238, 238); stroke-opacity: 1; stroke-width: 1px;"/><path class="xgrid crisp" d="M0,100v720" transform="translate(341.61,0)" style="stroke: rgb(238, 238, 238); stroke-opacity: 1; stroke-width: 1px;"/><path class="xgrid crisp" d="M0,100v720" transform="translate(524.96,0)" style="stroke: rgb(238, 238, 238); stroke-opacity: 1; stroke-width: 1px;"/><path class="xgrid crisp" d="M0,100v720" transform="translate(708.32,0)" style="stroke: rgb(238, 238, 238); stroke-opacity: 1; stroke-width: 1px;"/><path class="xgrid crisp" d="M0,100v720" transform="translate(891.68,0)" style="stroke: rgb(238, 238, 238); stroke-opacity: 1; stroke-width: 1px;"/><path class="xgrid crisp" d="M0,100v720" transform="translate(1075.04,0)" style="stroke: rgb(238, 238, 238); stroke-opacity: 1; stroke-width: 1px;"/><path class="xgrid crisp" d="M0,100v720" transform="translate(1258.39,0)" style="stroke: rgb(238, 238, 238); stroke-opacity: 1; stroke-width: 1px;"/><path class="xgrid crisp" d="M0,100v720" transform="translate(1441.75,0)" style="stroke: rgb(238, 238, 238); stroke-opacity: 1; stroke-width: 1px;"/></g><g class="y"><path class="ygrid crisp" d="M80,0h1440" transform="translate(0,807.02)" style="stroke: rgb(238, 238, 238); stroke-opacity: 1; stroke-width: 1px;"/><path class="ygrid crisp" d="M80,0h1440" transform="translate(0,796.98)" style="stroke: rgb(238, 238, 238); stroke-opacity: 1; stroke-width: 1px;"/><path class="ygrid crisp" d="M80,0h1440" transform="translate(0,731.79)" style="stroke: rgb(238, 238, 238); stroke-opacity: 1; stroke-width: 1px;"/><path class="ygrid crisp" d="M80,0h1440" transform="translate(0,699.99)" style="stroke: rgb(238, 238, 238); stroke-opacity: 1; stroke-width: 1px;"/><path class="ygrid crisp" d="M80,0h1440" transform="translate(0,662.22)" style="stroke: rgb(238, 238, 238); stroke-opacity: 1; stroke-width: 1px;"/><path class="ygrid crisp" d="M80,0h1440" transform="translate(0,617.6)" style="stroke: rgb(238, 238, 238); stroke-opacity: 1; stroke-width: 1px;"/><path class="ygrid crisp" d="M80,0h1440" transform="translate(0,606.89)" style="stroke: rgb(238, 238, 238); stroke-opacity: 1; stroke-width: 1px;"/><path class="ygrid crisp" d="M80,0h1440" transform="translate(0,518.5699999999999)" style="stroke: rgb(238, 238, 238); stroke-opacity: 1; stroke-width: 1px;"/><path class="ygrid crisp" d="M80,0h1440" transform="translate(0,466.95)" style="stroke: rgb(238, 238, 238); stroke-opacity: 1; stroke-width: 1px;"/><path class="ygrid crisp" d="M80,0h1440" transform="translate(0,142.25)" style="stroke: rgb(238, 238, 238); stroke-opacity: 1; stroke-width: 1px;"/></g><g class="y2"><path class="y2grid crisp" d="M80,0h1440" transform="translate(0,795.37)" style="stroke: rgb(238, 238, 238); stroke-opacity: 1; stroke-width: 1px;"/><path class="y2grid crisp" d="M80,0h1440" transform="translate(0,781.05)" style="stroke: rgb(238, 238, 238); stroke-opacity: 1; stroke-width: 1px;"/><path class="y2grid crisp" d="M80,0h1440" transform="translate(0,672.65)" style="stroke: rgb(238, 238, 238); stroke-opacity: 1; stroke-width: 1px;"/><path class="y2grid crisp" d="M80,0h1440" transform="translate(0,641.06)" style="stroke: rgb(238, 238, 238); stroke-opacity: 1; stroke-width: 1px;"/><path class="y2grid crisp" d="M80,0h1440" transform="translate(0,596.0899999999999)" style="stroke: rgb(238, 238, 238); stroke-opacity: 1; stroke-width: 1px;"/><path class="y2grid crisp" d="M80,0h1440" transform="translate(0,525.4300000000001)" style="stroke: rgb(238, 238, 238); stroke-opacity: 1; stroke-width: 1px;"/><path class="y2grid crisp" d="M80,0h1440" transform="translate(0,493.04)" style="stroke: rgb(238, 238, 238); stroke-opacity: 1; stroke-width: 1px;"/><path class="y2grid crisp" d="M80,0h1440" transform="translate(0,463.59)" style="stroke: rgb(238, 238, 238); stroke-opacity: 1; stroke-width: 1px;"/><path class="y2grid crisp" d="M80,0h1440" transform="translate(0,363.48)" style="stroke: rgb(238, 238, 238); stroke-opacity: 1; stroke-width: 1px;"/><path class="y2grid crisp" d="M80,0h1440" transform="translate(0,142.25)" style="stroke: rgb(238, 238, 238); stroke-opacity: 1; stroke-width: 1px;"/></g></g><g class="zerolinelayer"><path class="yzl zl crisp" d="M80,0h1440" transform="translate(0,820)" style="stroke: rgb(68, 68, 68); stroke-opacity: 1; stroke-width: 1px;"/><path class="y2zl zl crisp" d="M80,0h1440" transform="translate(0,820)" style="stroke: rgb(68, 68, 68); stroke-opacity: 1; stroke-width: 1px;"/></g><path class="xlines-below"/><path class="ylines-below"/><g class="overlines-below"><path class="xy2-x"/><path class="xy2-y"/></g><g class="xaxislayer-below"/><g class="yaxislayer-below"/><g class="overaxes-below"><g class="xy2-x"/><g class="xy2-y"/></g><g class="plot" transform="translate(80, 100)" clip-path="url(#clipaf2d8dxyplot)"><g class="scatterlayer mlayer"><g class="trace scatter tracecdc5ba" style="stroke-miterlimit: 2; opacity: 1;"><path class="js-line" d="M78.25,696.98L261.61,707.02L628.32,711.85L1361.75,713.3" style="vector-effect: non-scaling-stroke; fill: none; stroke: rgb(0, 0, 0); stroke-opacity: 1; stroke-width: 2px; opacity: 1;"/><g class="points"><path class="point" transform="translate(78.25,696.98)" d="M5,0A5,5 0 1,1 0,-5A5,5 0 0,1 5,0Z" style="opacity: 1; stroke-width: 0px; fill: rgb(0, 0, 0); fill-opacity: 1;"/><path class="point" transform="translate(261.61,707.02)" d="M5,0A5,5 0 1,1 0,-5A5,5 0 0,1 5,0Z" style="opacity: 1; stroke-width: 0px; fill: rgb(0, 0, 0); fill-opacity: 1;"/><path class="point" transform="translate(628.32,711.85)" d="M5,0A5,5 0 1,1 0,-5A5,5 0 0,1 5,0Z" style="opacity: 1; stroke-width: 0px; fill: rgb(0, 0, 0); fill-opacity: 1;"/><path class="point" transform="translate(1361.75,713.3)" d="M5,0A5,5 0 1,1 0,-5A5,5 0 0,1 5,0Z" style="opacity: 1; stroke-width: 0px; fill: rgb(0, 0, 0); fill-opacity: 1;"/></g></g><g class="trace scatter tracea90abc" style="stroke-miterlimit: 2; opacity: 1;"><path class="js-line" d="M78.25,418.57L261.61,562.22L628.32,599.99L1361.75,631.79" style="vector-effect: non-scaling-stroke; fill: none; stroke: rgb(0, 0, 0); stroke-opacity: 1; stroke-width: 2px; opacity: 1;"/><g class="points"><path class="point" transform="translate(78.25,418.57)" d="M5,5H-5V-5H5Z" style="opacity: 1; stroke-width: 0px; fill: rgb(0, 0, 0); fill-opacity: 1;"/><path class="point" transform="translate(261.61,562.22)" d="M5,5H-5V-5H5Z" style="opacity: 1; stroke-width: 0px; fill: rgb(0, 0, 0); fill-opacity: 1;"/><path class="point" transform="translate(628.32,599.99)" d="M5,5H-5V-5H5Z" style="opacity: 1; stroke-width: 0px; fill: rgb(0, 0, 0); fill-opacity: 1;"/><path class="point" transform="translate(1361.75,631.79)" d="M5,5H-5V-5H5Z" style="opacity: 1; stroke-width: 0px; fill: rgb(0, 0, 0); fill-opacity: 1;"/></g></g><g class="trace scatter trace441c73" style="stroke-miterlimit: 2; opacity: 1;"><path class="js-line" d="M78.25,42.25L261.61,366.95L628.32,506.89L1361.75,517.6" style="vector-effect: non-scaling-stroke; fill: none; stroke: rgb(0, 0, 0); stroke-opacity: 1; stroke-width: 2px; opacity: 1;"/><g class="points"><path class="point" transform="translate(78.25,42.25)" d="M6.5,0L0,6.5L-6.5,0L0,-6.5Z" style="opacity: 1; stroke-width: 0px; fill: rgb(0, 0, 0); fill-opacity: 1;"/><path class="point" transform="translate(261.61,366.95)" d="M6.5,0L0,6.5L-6.5,0L0,-6.5Z" style="opacity: 1; stroke-width: 0px; fill: rgb(0, 0, 0); fill-opacity: 1;"/><path class="point" transform="translate(628.32,506.89)" d="M6.5,0L0,6.5L-6.5,0L0,-6.5Z" style="opacity: 1; stroke-width: 0px; fill: rgb(0, 0, 0); fill-opacity: 1;"/><path class="point" transform="translate(1361.75,517.6)" d="M6.5,0L0,6.5L-6.5,0L0,-6.5Z" style="opacity: 1; stroke-width: 0px; fill: rgb(0, 0, 0); fill-opacity: 1;"/></g></g></g></g><g class="overplot"><g class="xy2" transform="translate(80, 100)" clip-path="url(#clipaf2d8dxy2plot)"><g class="scatterlayer mlayer"><g class="trace scatter trace39b80a" style="stroke-miterlimit: 2; opacity: 1;"><path class="js-line" d="M78.25,705.28L261.61,701.53L628.32,695.37L1361.75,681.05" style="vector-effect: non-scaling-stroke; fill: none; stroke: rgb(0, 0, 0); stroke-opacity: 1; stroke-width: 2px; opacity: 1; stroke-dasharray: 15px, 15px;"/><g class="points"><path class="point" transform="translate(78.25,705.28)" d="M5,0A5,5 0 1,1 0,-5A5,5 0 0,1 5,0Z" style="opacity: 1; stroke: rgb(0, 0, 0); stroke-opacity: 1; stroke-width: 1px; fill: none;"/><path class="point" transform="translate(261.61,701.53)" d="M5,0A5,5 0 1,1 0,-5A5,5 0 0,1 5,0Z" style="opacity: 1; stroke: rgb(0, 0, 0); stroke-opacity: 1; stroke-width: 1px; fill: none;"/><path class="point" transform="translate(628.32,695.37)" d="M5,0A5,5 0 1,1 0,-5A5,5 0 0,1 5,0Z" style="opacity: 1; stroke: rgb(0, 0, 0); stroke-opacity: 1; stroke-width: 1px; fill: none;"/><path class="point" transform="translate(1361.75,681.05)" d="M5,0A5,5 0 1,1 0,-5A5,5 0 0,1 5,0Z" style="opacity: 1; stroke: rgb(0, 0, 0); stroke-opacity: 1; stroke-width: 1px; fill: none;"/></g></g><g class="trace scatter trace27119d" style="stroke-miterlimit: 2; opacity: 1;"><path class="js-line" d="M78.25,572.65L261.61,541.06L628.32,496.09L1361.75,393.04" style="vector-effect: non-scaling-stroke; fill: none; stroke: rgb(0, 0, 0); stroke-opacity: 1; stroke-width: 2px; opacity: 1; stroke-dasharray: 15px, 15px;"/><g class="points"><path class="point" transform="translate(78.25,572.65)" d="M5,5H-5V-5H5Z" style="opacity: 1; stroke: rgb(0, 0, 0); stroke-opacity: 1; stroke-width: 1px; fill: none;"/><path class="point" transform="translate(261.61,541.06)" d="M5,5H-5V-5H5Z" style="opacity: 1; stroke: rgb(0, 0, 0); stroke-opacity: 1; stroke-width: 1px; fill: none;"/><path class="point" transform="translate(628.32,496.09)" d="M5,5H-5V-5H5Z" style="opacity: 1; stroke: rgb(0, 0, 0); stroke-opacity: 1; stroke-width: 1px; fill: none;"/><path class="point" transform="translate(1361.75,393.04)" d="M5,5H-5V-5H5Z" style="opacity: 1; stroke: rgb(0, 0, 0); stroke-opacity: 1; stroke-width: 1px; fill: none;"/></g></g><g class="trace scatter trace881b1d" style="stroke-miterlimit: 2; opacity: 1;"><path class="js-line" d="M78.25,425.43L261.61,363.59L628.32,263.48L1361.75,42.25" style="vector-effect: non-scaling-stroke; fill: none; stroke: rgb(0, 0, 0); stroke-opacity: 1; stroke-width: 2px; opacity: 1; stroke-dasharray: 15px, 15px;"/><g class="points"><path class="point" transform="translate(78.25,425.43)" d="M6.5,0L0,6.5L-6.5,0L0,-6.5Z" style="opacity: 1; stroke: rgb(0, 0, 0); stroke-opacity: 1; stroke-width: 1px; fill: none;"/><path class="point" transform="translate(261.61,363.59)" d="M6.5,0L0,6.5L-6.5,0L0,-6.5Z" style="opacity: 1; stroke: rgb(0, 0, 0); stroke-opacity: 1; stroke-width: 1px; fill: none;"/><path class="point" transform="translate(628.32,263.48)" d="M6.5,0L0,6.5L-6.5,0L0,-6.5Z" style="opacity: 1; stroke: rgb(0, 0, 0); stroke-opacity: 1; stroke-width: 1px; fill: none;"/><path class="point" transform="translate(1361.75,42.25)" d="M6.5,0L0,6.5L-6.5,0L0,-6.5Z" style="opacity: 1; stroke: rgb(0, 0, 0); stroke-opacity: 1; stroke-width: 1px; fill: none;"/></g></g></g></g></g><path class="xlines-above crisp" d="M0,0" style="fill: none;"/><path class="ylines-above crisp" d="M0,0" style="fill: none;"/><g class="overlines-above"><path class="xy2-x crisp" d="M0,0" style="fill: none;"/><path class="xy2-y crisp" d="M0,0" style="fill: none;"/></g><g class="xaxislayer-above"><g class="xtick"><text text-anchor="middle" x="0" y="833" transform="translate(158.25,0)" style="font-family: 'Times New Roman'; font-size: 12px; fill: rgb(68, 68, 68); fill-opacity: 1; white-space: pre;">1</text></g><g class="xtick"><text text-anchor="middle" x="0" y="833" transform="translate(341.61,0)" style="font-family: 'Times New Roman'; font-size: 12px; fill: rgb(68, 68, 68); fill-opacity: 1; white-space: pre;">2</text></g><g class="xtick"><text text-anchor="middle" x="0" y="833" transform="translate(524.96,0)" style="font-family: 'Times New Roman'; font-size: 12px; fill: rgb(68, 68, 68); fill-opacity: 1; white-space: pre;">3</text></g><g class="xtick"><text text-anchor="middle" x="0" y="833" transform="translate(708.32,0)" style="font-family: 'Times New Roman'; font-size: 12px; fill: rgb(68, 68, 68); fill-opacity: 1; white-space: pre;">4</text></g><g class="xtick"><text text-anchor="middle" x="0" y="833" transform="translate(891.68,0)" style="font-family: 'Times New Roman'; font-size: 12px; fill: rgb(68, 68, 68); fill-opacity: 1; white-space: pre;">5</text></g><g class="xtick"><text text-anchor="middle" x="0" y="833" transform="translate(1075.04,0)" style="font-family: 'Times New Roman'; font-size: 12px; fill: rgb(68, 68, 68); fill-opacity: 1; white-space: pre;">6</text></g><g class="xtick"><text text-anchor="middle" x="0" y="833" transform="translate(1258.39,0)" style="font-family: 'Times New Roman'; font-size: 12px; fill: rgb(68, 68, 68); fill-opacity: 1; white-space: pre;">7</text></g><g class="xtick"><text text-anchor="middle" x="0" y="833" transform="translate(1441.75,0)" style="font-family: 'Times New Roman'; font-size: 12px; fill: rgb(68, 68, 68); fill-opacity: 1; white-space: pre;">8</text></g></g><g class="yaxislayer-above"><g class="ytick"><text text-anchor="end" x="79" y="4.199999999999999" transform="translate(0,807.02)" style="font-family: 'Times New Roman'; font-size: 12px; fill: rgb(68, 68, 68); fill-opacity: 1; white-space: pre;">1.44 min</text></g><g class="ytick"><text text-anchor="end" x="79" y="4.199999999999999" transform="translate(0,796.98)" style="font-family: 'Times New Roman'; font-size: 12px; fill: rgb(68, 68, 68); fill-opacity: 1; white-space: pre;">2.56 min</text></g><g class="ytick"><text text-anchor="end" x="79" y="4.199999999999999" transform="translate(0,731.79)" style="font-family: 'Times New Roman'; font-size: 12px; fill: rgb(68, 68, 68); fill-opacity: 1; white-space: pre;">9.80 min</text></g><g class="ytick"><text text-anchor="end" x="79" y="4.199999999999999" transform="translate(0,699.99)" style="font-family: 'Times New Roman'; font-size: 12px; fill: rgb(68, 68, 68); fill-opacity: 1; white-space: pre;">13.33 min</text></g><g class="ytick"><text text-anchor="end" x="79" y="4.199999999999999" transform="translate(0,662.22)" style="font-family: 'Times New Roman'; font-size: 12px; fill: rgb(68, 68, 68); fill-opacity: 1; white-space: pre;">17.53 min</text></g><g class="ytick"><text text-anchor="end" x="79" y="4.199999999999999" transform="translate(0,617.6)" style="font-family: 'Times New Roman'; font-size: 12px; fill: rgb(68, 68, 68); fill-opacity: 1; white-space: pre;">22.48 min</text></g><g class="ytick"><text text-anchor="end" x="79" y="4.199999999999999" transform="translate(0,606.89)" style="font-family: 'Times New Roman'; font-size: 12px; fill: rgb(68, 68, 68); fill-opacity: 1; white-space: pre;">23.67 min</text></g><g class="ytick"><text text-anchor="end" x="79" y="4.199999999999999" transform="translate(0,518.5699999999999)" style="font-family: 'Times New Roman'; font-size: 12px; fill: rgb(68, 68, 68); fill-opacity: 1; white-space: pre;">33.48 min</text></g><g class="ytick"><text text-anchor="end" x="79" y="4.199999999999999" transform="translate(0,466.95)" style="font-family: 'Times New Roman'; font-size: 12px; fill: rgb(68, 68, 68); fill-opacity: 1; white-space: pre;">39.22 min</text></g><g class="ytick"><text text-anchor="end" x="79" y="4.199999999999999" transform="translate(0,142.25)" style="font-family: 'Times New Roman'; font-size: 12px; fill: rgb(68, 68, 68); fill-opacity: 1; white-space: pre;">75.28 min</text></g></g><g class="overaxes-above"><g class="xy2-x"/><g class="xy2-y"><g class="y2tick"><text text-anchor="start" x="1521" y="4.199999999999999" transform="translate(0,795.37)" style="font-family: 'Times New Roman'; font-size: 12px; fill: rgb(68, 68, 68); fill-opacity: 1; white-space: pre;">1.84 GB</text></g><g class="y2tick"><text text-anchor="start" x="1521" y="4.199999999999999" transform="translate(0,781.05)" style="font-family: 'Times New Roman'; font-size: 12px; fill: rgb(68, 68, 68); fill-opacity: 1; white-space: pre;">2.91 GB</text></g><g class="y2tick"><text text-anchor="start" x="1521" y="4.199999999999999" transform="translate(0,672.65)" style="font-family: 'Times New Roman'; font-size: 12px; fill: rgb(68, 68, 68); fill-opacity: 1; white-space: pre;">11.01 GB</text></g><g class="y2tick"><text text-anchor="start" x="1521" y="4.199999999999999" transform="translate(0,641.06)" style="font-family: 'Times New Roman'; font-size: 12px; fill: rgb(68, 68, 68); fill-opacity: 1; white-space: pre;">13.37 GB</text></g><g class="y2tick"><text text-anchor="start" x="1521" y="4.199999999999999" transform="translate(0,596.0899999999999)" style="font-family: 'Times New Roman'; font-size: 12px; fill: rgb(68, 68, 68); fill-opacity: 1; white-space: pre;">16.73 GB</text></g><g class="y2tick"><text text-anchor="start" x="1521" y="4.199999999999999" transform="translate(0,525.4300000000001)" style="font-family: 'Times New Roman'; font-size: 12px; fill: rgb(68, 68, 68); fill-opacity: 1; white-space: pre;">22.01 GB</text></g><g class="y2tick"><text text-anchor="start" x="1521" y="4.199999999999999" transform="translate(0,493.04)" style="font-family: 'Times New Roman'; font-size: 12px; fill: rgb(68, 68, 68); fill-opacity: 1; white-space: pre;">24.43 GB</text></g><g class="y2tick"><text text-anchor="start" x="1521" y="4.199999999999999" transform="translate(0,463.59)" style="font-family: 'Times New Roman'; font-size: 12px; fill: rgb(68, 68, 68); fill-opacity: 1; white-space: pre;">26.63 GB</text></g><g class="y2tick"><text text-anchor="start" x="1521" y="4.199999999999999" transform="translate(0,363.48)" style="font-family: 'Times New Roman'; font-size: 12px; fill: rgb(68, 68, 68); fill-opacity: 1; white-space: pre;">34.11 GB</text></g><g class="y2tick"><text text-anchor="start" x="1521" y="4.199999999999999" transform="translate(0,142.25)" style="font-family: 'Times New Roman'; font-size: 12px; fill: rgb(68, 68, 68); fill-opacity: 1; white-space: pre;">50.64 GB</text></g></g></g></g><g class="subplot xy2"/></g><g class="polarlayer"/><g class="ternarylayer"/><g class="geolayer"/><g class="pielayer"/><g class="glimages"/><defs id="topdefs-af2d8d"><g class="clips"/><clipPath id="legendaf2d8d"><rect width="191" height="124" x="2" y="2"/></clipPath></defs><g class="layer-above"><g class="imagelayer"/><g class="shapelayer"/></g><g class="infolayer"><g class="legend" pointer-events="all" transform="translate(1304, 243.99999999999997)"><rect class="bg" shape-rendering="crispEdges" width="193" height="126" x="1" y="1" style="stroke: rgb(68, 68, 68); stroke-opacity: 1; fill: rgb(255, 255, 255); fill-opacity: 1; stroke-width: 2px;"/><g class="scrollbox" transform="translate(0, 0)" clip-path="url(#legendaf2d8d)"><g class="groups"><g class="traces" transform="translate(2, 16.5)" style="opacity: 1;"><g class="layers" style="opacity: 1;"><g class="legendfill"/><g class="legendlines"><path class="js-line" d="M5,0h30" style="fill: none; stroke: rgb(0, 0, 0); stroke-opacity: 1; stroke-width: 2px;"/></g><g class="legendsymbols"><g class="legendpoints"><path class="scatterpts" transform="translate(20,0)" d="M5,0A5,5 0 1,1 0,-5A5,5 0 0,1 5,0Z" style="opacity: 1; stroke-width: 0px; fill: rgb(0, 0, 0); fill-opacity: 1;"/></g></g></g><text class="legendtext user-select-none" text-anchor="start" x="40" y="4.680000000000001" style="font-family: 'Times New Roman'; font-size: 12px; fill: rgb(68, 68, 68); fill-opacity: 1; white-space: pre;">Time for molNum = 100000</text><rect class="legendtoggle" pointer-events="all" x="0" y="-9.5" width="235" height="19" style="cursor: pointer; fill: rgb(0, 0, 0); fill-opacity: 0;"/></g><g class="traces" transform="translate(2, 35.5)" style="opacity: 1;"><g class="layers" style="opacity: 1;"><g class="legendfill"/><g class="legendlines"><path class="js-line" d="M5,0h30" style="fill: none; stroke: rgb(0, 0, 0); stroke-opacity: 1; stroke-dasharray: 15px, 15px; stroke-width: 2px;"/></g><g class="legendsymbols"><g class="legendpoints"><path class="scatterpts" transform="translate(20,0)" d="M5,0A5,5 0 1,1 0,-5A5,5 0 0,1 5,0Z" style="opacity: 1; stroke: rgb(0, 0, 0); stroke-opacity: 1; stroke-width: 1px; fill: none;"/></g></g></g><text class="legendtext user-select-none" text-anchor="start" x="40" y="4.680000000000001" style="font-family: 'Times New Roman'; font-size: 12px; fill: rgb(68, 68, 68); fill-opacity: 1; white-space: pre;">RAM for molNum = 100000</text><rect class="legendtoggle" pointer-events="all" x="0" y="-9.5" width="235" height="19" style="cursor: pointer; fill: rgb(0, 0, 0); fill-opacity: 0;"/></g><g class="traces" transform="translate(2, 54.5)" style="opacity: 1;"><g class="layers" style="opacity: 1;"><g class="legendfill"/><g class="legendlines"><path class="js-line" d="M5,0h30" style="fill: none; stroke: rgb(0, 0, 0); stroke-opacity: 1; stroke-width: 2px;"/></g><g class="legendsymbols"><g class="legendpoints"><path class="scatterpts" transform="translate(20,0)" d="M5,5H-5V-5H5Z" style="opacity: 1; stroke-width: 0px; fill: rgb(0, 0, 0); fill-opacity: 1;"/></g></g></g><text class="legendtext user-select-none" text-anchor="start" x="40" y="4.680000000000001" style="font-family: 'Times New Roman'; font-size: 12px; fill: rgb(68, 68, 68); fill-opacity: 1; white-space: pre;">Time for molNum = 1000000</text><rect class="legendtoggle" pointer-events="all" x="0" y="-9.5" width="235" height="19" style="cursor: pointer; fill: rgb(0, 0, 0); fill-opacity: 0;"/></g><g class="traces" transform="translate(2, 73.5)" style="opacity: 1;"><g class="layers" style="opacity: 1;"><g class="legendfill"/><g class="legendlines"><path class="js-line" d="M5,0h30" style="fill: none; stroke: rgb(0, 0, 0); stroke-opacity: 1; stroke-dasharray: 15px, 15px; stroke-width: 2px;"/></g><g class="legendsymbols"><g class="legendpoints"><path class="scatterpts" transform="translate(20,0)" d="M5,5H-5V-5H5Z" style="opacity: 1; stroke: rgb(0, 0, 0); stroke-opacity: 1; stroke-width: 1px; fill: none;"/></g></g></g><text class="legendtext user-select-none" text-anchor="start" x="40" y="4.680000000000001" style="font-family: 'Times New Roman'; font-size: 12px; fill: rgb(68, 68, 68); fill-opacity: 1; white-space: pre;">RAM for molNum = 1000000</text><rect class="legendtoggle" pointer-events="all" x="0" y="-9.5" width="235" height="19" style="cursor: pointer; fill: rgb(0, 0, 0); fill-opacity: 0;"/></g><g class="traces" transform="translate(2, 92.5)" style="opacity: 1;"><g class="layers" style="opacity: 1;"><g class="legendfill"/><g class="legendlines"><path class="js-line" d="M5,0h30" style="fill: none; stroke: rgb(0, 0, 0); stroke-opacity: 1; stroke-width: 2px;"/></g><g class="legendsymbols"><g class="legendpoints"><path class="scatterpts" transform="translate(20,0)" d="M6.5,0L0,6.5L-6.5,0L0,-6.5Z" style="opacity: 1; stroke-width: 0px; fill: rgb(0, 0, 0); fill-opacity: 1;"/></g></g></g><text class="legendtext user-select-none" text-anchor="start" x="40" y="4.680000000000001" style="font-family: 'Times New Roman'; font-size: 12px; fill: rgb(68, 68, 68); fill-opacity: 1; white-space: pre;">Time for molNum = 2000000</text><rect class="legendtoggle" pointer-events="all" x="0" y="-9.5" width="235" height="19" style="cursor: pointer; fill: rgb(0, 0, 0); fill-opacity: 0;"/></g><g class="traces" transform="translate(2, 111.5)" style="opacity: 1;"><g class="layers" style="opacity: 1;"><g class="legendfill"/><g class="legendlines"><path class="js-line" d="M5,0h30" style="fill: none; stroke: rgb(0, 0, 0); stroke-opacity: 1; stroke-dasharray: 15px, 15px; stroke-width: 2px;"/></g><g class="legendsymbols"><g class="legendpoints"><path class="scatterpts" transform="translate(20,0)" d="M6.5,0L0,6.5L-6.5,0L0,-6.5Z" style="opacity: 1; stroke: rgb(0, 0, 0); stroke-opacity: 1; stroke-width: 1px; fill: none;"/></g></g></g><text class="legendtext user-select-none" text-anchor="start" x="40" y="4.680000000000001" style="font-family: 'Times New Roman'; font-size: 12px; fill: rgb(68, 68, 68); fill-opacity: 1; white-space: pre;">RAM for molNum = 2000000</text><rect class="legendtoggle" pointer-events="all" x="0" y="-9.5" width="235" height="19" style="cursor: pointer; fill: rgb(0, 0, 0); fill-opacity: 0;"/></g></g></g><rect class="scrollbar" rx="20" ry="3" width="0" height="0" x="0" y="0" style="fill: rgb(128, 139, 164); fill-opacity: 1;"/></g><g class="g-gtitle"/><g class="g-xtitle"><text class="xtitle" x="800" y="872" text-anchor="middle" style="font-family: 'Times New Roman'; font-size: 14px; fill: rgb(68, 68, 68); opacity: 1; font-weight: normal; white-space: pre;">Number of threads</text></g><g class="g-ytitle" transform="translate(-16.859375,0)"><text class="ytitle" transform="rotate(-90,42,460)" x="42" y="460" text-anchor="middle" style="font-family: 'Times New Roman'; font-size: 14px; fill: rgb(68, 68, 68); opacity: 1; font-weight: normal; white-space: pre;">Wall clock time</text></g><g class="g-y2title" transform="translate(17.46875,0)"><text class="y2title" transform="rotate(-90,1565,460)" x="1565" y="460" text-anchor="middle" style="font-family: 'Times New Roman'; font-size: 14px; fill: rgb(68, 68, 68); opacity: 1; font-weight: normal; white-space: pre;">RAM</text></g></g></svg>